<svg width="20" height="20" viewBox="0 0 20 20" fill="none" xmlns="http://www.w3.org/2000/svg">
<path d="M9.99992 3.33337C10.884 3.33337 11.7318 3.68456 12.3569 4.30968C12.9821 4.9348 13.3333 5.78265 13.3333 6.6667C13.3333 7.55075 12.9821 8.3986 12.3569 9.02372C11.7318 9.64884 10.884 10 9.99992 10C9.11586 10 8.26802 9.64884 7.6429 9.02372C7.01777 8.3986 6.66658 7.55075 6.66658 6.6667C6.66658 5.78265 7.01777 4.9348 7.6429 4.30968C8.26802 3.68456 9.11586 3.33337 9.99992 3.33337ZM9.99992 11.6667C13.6833 11.6667 16.6666 13.1584 16.6666 15V16.6667H3.33325V15C3.33325 13.1584 6.31658 11.6667 9.99992 11.6667Z" fill="#6A7481"/>
</svg>
